<?xml version="1.0" encoding="UTF-8"?>
<!DOCTYPE svg PUBLIC "-//W3C//DTD SVG 1.1//EN" "http://www.w3.org/Graphics/SVG/1.1/DTD/svg11.dtd">
<!-- Creator: CorelDRAW X8 -->
<svg xmlns="http://www.w3.org/2000/svg" xml:space="preserve" width="8mm" height="8mm" version="1.1" style="shape-rendering:geometricPrecision; text-rendering:geometricPrecision; image-rendering:optimizeQuality; fill-rule:evenodd; clip-rule:evenodd"
viewBox="0 0 800 800"
 xmlns:xlink="http://www.w3.org/1999/xlink">
 <defs>
  <style type="text/css">
   <![CDATA[
    .str0 {stroke:#2D1E2D;stroke-width:60;stroke-linecap:round}
    .fil1 {fill:none}
    .fil0 {fill:#2D1E2D}
   ]]>
  </style>
 </defs>
 <g id="Слой_x0020_1">
  <metadata id="CorelCorpID_0Corel-Layer"/>
  <g id="_2486197004240">
   <g>
    <path class="fil0" d="M232 664l0 -48 -107 0c-23,0 -45,-9 -60,-25 -15,-15 -25,-36 -25,-60l0 -370c0,-23 10,-45 25,-60 15,-15 37,-25 60,-25l550 0c23,0 45,10 60,25 15,15 25,37 25,60l0 370c0,24 -10,45 -25,60 -15,16 -37,25 -60,25l-250 0 -90 90c-11,11 -26,18 -43,18 -33,0 -60,-27 -60,-60zm60 -108l0 108 108 -108 275 0c14,0 25,-11 25,-25l0 -370c0,-14 -11,-25 -25,-25l-550 0c-14,0 -25,11 -25,25l0 370c0,14 11,25 25,25l167 0z"/>
   </g>
   <line class="fil1 str0" x1="198" y1="265" x2="593" y2= "265" />
   <line class="fil1 str0" x1="463" y1="415" x2="198" y2= "415" />
  </g>
 </g>
</svg>
